<?xml version="1.0" encoding="UTF-8" standalone="no"?>
<!-- Created with Inkscape (http://www.inkscape.org/) -->

<svg
   width="54.528481"
   height="63.999996"
   viewBox="0 0 14.427327 16.933332"
   version="1.1"
   id="svg5"
   inkscape:export-filename="trash.svg"
   inkscape:export-xdpi="96"
   inkscape:export-ydpi="96"
   xmlns:inkscape="http://www.inkscape.org/namespaces/inkscape"
   xmlns:sodipodi="http://sodipodi.sourceforge.net/DTD/sodipodi-0.dtd"
   xmlns="http://www.w3.org/2000/svg"
   xmlns:svg="http://www.w3.org/2000/svg">
  <sodipodi:namedview
     id="namedview7"
     pagecolor="#ffffff"
     bordercolor="#000000"
     borderopacity="0.25"
     inkscape:showpageshadow="2"
     inkscape:pageopacity="0.0"
     inkscape:pagecheckerboard="0"
     inkscape:deskcolor="#d1d1d1"
     inkscape:document-units="px"
     showgrid="false" />
  <defs
     id="defs2" />
  <g
     inkscape:label="Calque 1"
     inkscape:groupmode="layer"
     id="layer1"
     transform="translate(0,-13.276731)">
    <path
       id="rect240"
       style="fill:#000000;stroke-width:0.315666"
       d="M 0.75134015,16.152428 H 13.273677 L 12.021443,30.210064 H 2.0035737 Z"
       sodipodi:nodetypes="ccccc" />
    <path
       id="rect549"
       style="fill:#000000;stroke-width:0.323353"
       d="m 4.5716309,13.276731 c -0.1156847,0 -0.1729719,0.09971 -0.2095534,0.209456 L 4.0845317,14.318923 H 0.378605 A 0.37862812,0.37862812 0 0 0 0,14.697527 v 0.284981 a 0.37862812,0.37862812 0 0 0 0.378605,0.378605 h 13.267806 a 0.37862812,0.37862812 0 0 0 0.378606,-0.378605 V 14.697527 A 0.37862812,0.37862812 0 0 0 13.646411,14.318923 H 9.9708123 L 9.712539,13.444707 C 9.686251,13.355737 9.637334,13.276731 9.5445637,13.276731 Z" />
  </g>
</svg>
